<svg id="Capa_1" enable-background="new 0 0 512 512" height="512" viewBox="0 0 512 512" width="512" xmlns="http://www.w3.org/2000/svg"><g><circle cx="256.023" cy="255.977" fill="#f9f7f8" r="247.264"/><path d="m472.379 255.977c0 52.145-18.447 99.981-49.171 137.338-5.503 6.691-12.461 11.854-18.717 17.837-38.85 37.161-90.462 52.39-148.468 52.39-119.49 0-205.374-88.076-205.374-207.566 0-63.465 15.827-109.669 59.872-160.124 38.425-34.937 89.477-56.232 145.502-56.232 119.49.001 216.356 96.867 216.356 216.357z" fill="#efedef"/><path d="m423.308 393.198c-39.686 48.32-99.884 79.135-167.284 79.135-119.49 0-216.356-96.866-216.356-216.356 0-63.887 27.694-121.314 71.737-160.917-30.671 37.337-49.072 85.131-49.072 137.221 0 119.49 96.866 216.356 216.356 216.356 55.604 0 106.303-20.966 144.619-55.439z" fill="#e5e1e5"/><path d="m508.679 111.919c5.3-9.646 4.197-21.764-2.879-30.193-4.331-5.159-10.084-8.218-16.117-9.229-1.538-.258-2.67-1.556-2.641-3.115.213-11.435-4.035-22.936-12.761-31.662s-20.228-12.974-31.662-12.761c-1.559.029-2.858-1.103-3.115-2.64-.126-.755-.294-1.527-.485-2.271 0 0-4.908-8.025-9.429-11.816-8.434-7.071-19.884-7.119-29.525-1.811-3.195 1.759-5.773 3.998-7.825 6.523-.916 1.127-2.517 1.412-3.799.73-16.492-8.771-35.306-5.411-49.201 8.484l-142.293 181.1 113.11 113.11 162.322-140.188c5.644-5.644 32.68-20.942 32.68-20.942 2.782-10.522 1.567-21.882-3.642-31.676-.682-1.282-.397-2.884.73-3.799 2.53-2.056 4.772-4.64 6.532-7.844z" fill="#bc7c63"/><path d="m341.579 155.077 83.752 22.717 23.395-23.395c9.725-9.725 11.012-25.332 2.439-36.087-2.433-3.052-5.355-5.394-8.541-7.06-1.45-.758-2.057-2.513-1.376-4.001 4.532-9.904 2.743-21.986-5.41-30.14s-20.236-9.942-30.14-5.41c-1.488.681-3.242.074-4.001-1.376-1.666-3.186-4.008-6.108-7.06-8.541-10.754-8.573-26.361-7.286-36.086 2.439l-17.086 17.086z" fill="#aa6a51"/><path d="m500.66 152.847c-32.721-17.762-68.945-28.559-105.922-31.722-2.019-.175-3.606-1.762-3.771-3.781-1.792-21.521-6.193-42.706-13.132-63.225-5.865-17.343 12.196-33.275 28.439-24.828.122.063.243.127.364.191 1.277.68 2.874.392 3.791-.731 2.05-2.524 4.636-4.77 7.83-6.522 6.429-3.544 13.959-4.212 20.759-2.183-1.339-5.193-4.254-10.077-8.756-13.858-8.438-7.068-20.554-8.17-30.197-2.854-3.194 1.751-5.78 3.997-7.83 6.522-.917 1.123-2.514 1.411-3.791.732-7.979-4.246-15.562-5.647-24.956-4.674-3.682.381-7.332 1.109-10.856 2.243-3.05.982-7.934 3.323-15.516 10.106l-140.169 184.995 108.896 108.896 187.893-137.269c5.646-5.646 9.416-12.446 11.322-19.647z" fill="#aa6a51"/><path d="m448.724 154.403-23.397 23.387-83.75-22.717-.113-73.767 17.092-17.082c5.429-5.44 12.713-8.242 19.946-8.139 6.563 19.905 10.735 40.428 12.466 61.26.165 2.019 1.751 3.606 3.771 3.781 21.12 1.803 42.004 6.11 62.115 12.775.246 7.418-2.556 14.928-8.13 20.502z" fill="#935b44"/><path d="m9.503 355.979c-.388 8.922-8.234 25.474-8.234 25.474 8.772 67.168 62.101 120.501 129.268 129.277 0 0 14.805-4.339 23.73-4.727l20.49-88.734-95.02-89.936z" fill="#ffc344"/><path d="m169.523 387.301-12.756 124.553c-8.922.391-17.69-.011-26.23-1.124-15.392-30.723-24.644-63.536-27.549-97.164-.206-2.462-2.174-4.43-4.636-4.646-33.7-2.977-66.761-12.312-97.082-27.467-1.113-8.541-1.515-17.298-1.123-26.22l80.292-19.124z" fill="#feb237"/><path d="m13.749 356.691-3.895-2.114 327.055-330.65 2.114 3.895c3.731 6.873 4.725 9.959 10.343 15.281 39.322 92.072 19.293 199.906-52.589 271.788-71.882 71.882-179.717 91.912-271.789 52.588 0 0-4.366-7.057-11.239-10.788z" fill="#ffd15b"/><path d="m349.366 43.103-324.38 324.38c-7.078-3.029-14.073-6.408-20.945-10.138l-3.894-2.112 40.005-40.005 20.734-8.701 11.617-23.649 264.613-264.614 2.122 3.894c3.729 6.872 7.11 13.857 10.128 20.945z" fill="#ffc344"/><path d="m154.653 507.958 2.114 3.895 173.764-173.764 21.897-38.84 33.027-16.083 108.284-108.284-3.895-2.114c-29.818-16.187-61.834-25.698-94.127-28.812l-48.462 6.585-47.838 3.14c-37.741 11.562-73.01 32.246-102.308 61.543-2.009 2.009-3.978 4.047-5.906 6.111l-12.649 26.533-22.857 22.271c-40.212 72.526-42.074 162.237-1.044 237.819z" fill="#ffc344"/><g fill="#feb237"><path d="m381.808 196.788c-20.389 18.349-51.791 16.711-70.141-3.678-9.128-10.128-13.301-22.975-12.703-35.596l.453-3.835c31.073-9.52 63.826-12.857 96.3-9.725l.742 2.691c4.832 17.556-.196 37.131-14.651 50.143z"/><circle cx="215.619" cy="344.791" r="33.56"/><path d="m385.456 283.166-54.923 54.923c-5.213-2.071-10.086-5.213-14.3-9.417-16.515-16.526-16.515-43.302 0-59.817 16.525-16.515 43.302-16.515 59.817 0 4.213 4.214 7.355 9.108 9.406 14.311z"/></g><path d="m85.494 290.11c-2.315-2.315-4.955-4.122-7.77-5.419l-35.754 35.753c1.297 2.816 3.106 5.457 5.424 7.776 10.519 10.519 27.58 10.519 38.099 0 10.52-10.52 10.52-27.581.001-38.11z" fill="#ffc344"/><path d="m91.953 300.515-34.163 34.164c-3.802-1.278-7.366-3.431-10.395-6.46-3.05-3.05-5.223-6.656-6.501-10.488l-.742-2.503 32.35-32.35 2.339.68c3.894 1.278 7.562 3.462 10.653 6.552 3.029 3.029 5.182 6.604 6.459 10.405z" fill="#feb237"/><circle cx="267.871" cy="236.917" fill="#feb237" r="20.605"/><path d="m213.267 251.526c0 17.535-14.218 31.753-31.753 31.753-10.292 0-19.431-4.894-25.242-12.477l-.575-.664c9.643-17.401 21.494-33.814 35.506-48.804l2.18.737c11.663 4.698 19.884 16.113 19.884 29.455z" fill="#feb237"/><circle cx="319.117" cy="101.889" fill="#ffc344" r="15.454"/><circle cx="177.552" cy="419.577" fill="#feb237" r="15.454"/></g></svg>