<svg height="512" viewBox="0 0 64 64" width="512" xmlns="http://www.w3.org/2000/svg"><g id="Filled_outline" data-name="Filled outline"><path d="m28 61h-16l-2-22h20z" fill="#87cee9"/><path d="m10.364 43 1.636 18h16l1.636-18z" fill="#ffd782"/><path d="m40 3h8v6h-8z" fill="#394d5c"/><path d="m48 20v-11h-8v11l-6 7v34h20v-34z" fill="#d3843d"/><path d="m40 12h5v2h-5z" fill="#aa6329"/><path d="m40 16h3v2h-3z" fill="#aa6329"/><path d="m34 31h14v22h-14z" fill="#394d5c"/><g fill="#aa6329"><path d="m34 56h12v2h-12z"/><path d="m48 56h2v2h-2z"/><path d="m43 26h11v2h-11z"/><path d="m34 26h5v2h-5z"/></g><path d="m11.636 57 .364 4h16l.364-4z" fill="#87cee9"/><path d="m15 51h4v4h-4z" fill="#aabece"/><path d="m20.879 46.879h4.243v4.243h-4.243z" fill="#aabece" transform="matrix(.707 -.707 .707 .707 -27.912 30.615)"/><path d="m38 35h6v6h-6z" fill="#ffd782"/><path d="m38 44h6v2h-6z" fill="#f4f4e6"/><path d="m37 48h8v2h-8z" fill="#f4f4e6"/><path d="m49 3a1 1 0 0 0 -1-1h-8a1 1 0 0 0 -1 1v16.63l-5.759 6.719a1 1 0 0 0 -.241.651v34a1 1 0 0 0 1 1h20a1 1 0 0 0 1-1v-34a1 1 0 0 0 -.241-.651l-5.759-6.719zm-8 1h6v4h-6zm-6 28h12v20h-12zm16.826-6h-8.826v2h10v32h-18v-2h11v-2h-11v-2h13a1 1 0 0 0 1-1v-22a1 1 0 0 0 -1-1h-13v-2h4v-2h-2.826l4.585-5.349a1 1 0 0 0 .241-.651v-2h2v-2h-2v-2h4v-2h-4v-2h6v10a1 1 0 0 0 .241.651z"/><path d="m48 56h2v2h-2z"/><path d="m22.293 52.707a1 1 0 0 0 1.414 0l3-3a1 1 0 0 0 0-1.414l-3-3a1 1 0 0 0 -1.414 0l-3 3a1 1 0 0 0 0 1.414zm.707-5.293 1.586 1.586-1.586 1.586-1.586-1.586z"/><path d="m30.738 38.326a1 1 0 0 0 -.738-.326h-20a1 1 0 0 0 -1 1.09l2.087 22.91h17.826l2.087-22.91a1 1 0 0 0 -.262-.764zm-3.651 21.674h-14.174l-.182-2h14.538zm-11.087-6v-2h2v2zm11.451 2h-8.451a1 1 0 0 0 1-1v-4a1 1 0 0 0 -1-1h-4a1 1 0 0 0 -1 1v4a1 1 0 0 0 1 1h-2.451l-1.091-12h17.084zm1.272-14h-17.446l-.177-2h17.81z"/><path d="m37 42h8v-8h-8zm2-6h4v4h-4z"/><path d="m38 44h6v2h-6z"/><path d="m37 48h8v2h-8z"/></g></svg>