<svg id="bold" height="512" viewBox="0 0 24 24" width="512" xmlns="http://www.w3.org/2000/svg"><path d="m21.25 5h-4.25v-2c0-1.103-.897-2-2-2h-6c-1.103 0-2 .897-2 2v2h-4.25c-1.517 0-2.75 1.233-2.75 2.75v11.5c0 1.517 1.233 2.75 2.75 2.75h18.5c1.517 0 2.75-1.233 2.75-2.75v-11.5c0-1.517-1.233-2.75-2.75-2.75zm-12.25-2h6v2h-6zm9 11.25c0 .965-.785 1.75-1.75 1.75h-2.25v2.25c0 .965-.785 1.75-1.75 1.75h-.5c-.965 0-1.75-.785-1.75-1.75v-2.25h-2.25c-.965 0-1.75-.785-1.75-1.75v-.5c0-.965.785-1.75 1.75-1.75h2.25v-2.25c0-.965.785-1.75 1.75-1.75h.5c.965 0 1.75.785 1.75 1.75v2.25h2.25c.965 0 1.75.785 1.75 1.75z"/></svg>