<svg id="Filled" height="512" viewBox="0 0 512 512" width="512" xmlns="http://www.w3.org/2000/svg"><path d="m136 104h112v272h-112z" fill="#c7312e"/><path d="m280 104h160v32h-160z" fill="#266fab"/><g fill="#3397e8"><path d="m360 488h-96l16-352h80z"/><path d="m360 488h96l-16-352h-80z"/><path d="m456 488h-96v-352h80l1.82 40z"/></g><path d="m160 144v248h-56v16h-48v-160l17.94-119.76a31.993 31.993 0 0 1 31.04-24.24h39.02a47.782 47.782 0 0 0 13.24 33.09z" fill="#eb423f"/><path d="m328 248v160h-48v-16h-56v-248l2.76-6.91a47.782 47.782 0 0 0 13.24-33.09h39.02a31.993 31.993 0 0 1 31.04 24.24z" fill="#eb423f"/><path d="m157.24 137.09a47.782 47.782 0 0 1 -13.24-33.09h-32l5.12 33.28c3.38 21.94 32.95 26.58 42.88 6.72v-4.23c-.96-.86-1.88-1.75-2.76-2.68z" fill="#d13330"/><path d="m272 104-5.12 33.28c-3.38 21.94-32.95 26.58-42.88 6.72v-4.23c.96-.86 1.88-1.75 2.76-2.68a47.782 47.782 0 0 0 13.24-33.09z" fill="#d13330"/><path d="m441.82 176h-1.82c-32 0-32-40-32-40h32z" fill="#2d85cc"/><path d="m258.216 493.527a8 8 0 0 0 5.784 2.473h192a8 8 0 0 0 7.992-8.363l-15.992-351.828v-31.809a8 8 0 0 0 -8-8h-29.578l-32.381-21.588a31.994 31.994 0 1 0 -50.041-26.412 8 8 0 0 0 16 0 16 16 0 1 1 16 16 7.992 7.992 0 0 0 -4.438 1.344l-45.984 30.656h-29.578c-.1 0-.193.011-.29.015-.232 0-.462-.015-.694-.015h-36.594l-32.382-21.588a31.994 31.994 0 1 0 -50.04-26.412 8 8 0 0 0 16 0 16 16 0 1 1 16 16 7.992 7.992 0 0 0 -4.438 1.344l-45.984 30.656h-36.594a39.941 39.941 0 0 0 -38.8 30.3q-.095.373-.152.755l-17.94 119.76a7.994 7.994 0 0 0 -.092 1.185v160a8 8 0 0 0 8 8h48a8 8 0 0 0 8-8v-8h48a8 8 0 0 0 8-8v-8h48v8a8 8 0 0 0 8 8h35.991l-3.983 87.637a8 8 0 0 0 2.208 5.89zm93.784-13.527h-79.628l2.977-65.5a7.949 7.949 0 0 0 4.651 1.5h48a8 8 0 0 0 8-8v-160a7.994 7.994 0 0 0 -.088-1.186l-15.402-102.814h31.49zm95.628 0h-79.628v-336h32.672a66.078 66.078 0 0 0 3.9 14.971c5.666 14.163 16.05 22.739 29.583 24.628zm-14.222-312.871c-6.223-1.783-10.783-6.326-13.838-13.755a47.5 47.5 0 0 1 -2.688-9.374h15.475zm-73.406-85.514 21.578 14.385h-43.156zm72 30.385v16h-113.886l-.142-.946q-.057-.381-.152-.755a39.964 39.964 0 0 0 -6.8-14.3zm-184.569 0h15.244l-3.7 24.062a14.792 14.792 0 0 1 -26.479 6.576 55.875 55.875 0 0 0 14.935-30.638zm-55.431-30.385 21.578 14.385h-43.156zm-55.431 30.385a55.875 55.875 0 0 0 14.937 30.638 14.792 14.792 0 0 1 -26.479-6.576l-3.702-24.062zm15.431 272h-40v-152a8 8 0 0 0 -16 0v168h-32v-151.4l17.791-118.767a23.964 23.964 0 0 1 23.193-17.833h.152l4.077 26.5a30.289 30.289 0 0 0 25.651 25.724 30.834 30.834 0 0 0 17.136-2.1zm64-16h-48v-213.419a55.856 55.856 0 0 0 48 0zm-24-224a40.069 40.069 0 0 1 -39.195-32h78.395a40.069 40.069 0 0 1 -39.2 32zm40 240v-221.879a30.844 30.844 0 0 0 17.136 2.1 30.289 30.289 0 0 0 25.651-25.721l4.077-26.5h.152a23.964 23.964 0 0 1 23.193 17.833l17.791 118.767v151.4h-32v-168a8 8 0 0 0 -16 0v152z"/></svg>