<svg height="512" viewBox="0 0 128 128" width="512" xmlns="http://www.w3.org/2000/svg"><g id="Circle_Grid" data-name="Circle Grid"><circle cx="64" cy="64" fill="#3b5059" r="64"/></g><g id="icon"><path d="m27.715 45.14h72.57v49.17h-72.57z" fill="#eeefee"/><path d="m33.677 29.106-9.037 12.796h11.246l6.455-12.796z" fill="#ef5261"/><path d="m24.64 41.9v4.44a5.623 5.623 0 0 0 11.246 0v-4.44z" fill="#da364c"/><path d="m42.341 29.106-6.455 12.796h11.245l3.873-12.796z" fill="#eeefee"/><path d="m35.886 41.9v4.44a5.623 5.623 0 1 0 11.245 0v-4.44z" fill="#dbd8dd"/><path d="m51.004 29.106-3.873 12.796h11.246l1.291-12.796z" fill="#ef5261"/><path d="m47.131 41.9v4.44a5.623 5.623 0 0 0 11.246 0v-4.44z" fill="#da364c"/><path d="m59.668 29.106-1.291 12.796h11.246l-1.291-12.796z" fill="#eeefee"/><path d="m58.377 41.9v4.44a5.623 5.623 0 0 0 11.246 0v-4.44z" fill="#dbd8dd"/><path d="m68.332 29.106 1.291 12.796h11.246l-3.873-12.796z" fill="#ef5261"/><path d="m69.623 41.9v4.44a5.623 5.623 0 0 0 11.246 0v-4.44z" fill="#da364c"/><path d="m76.996 29.106 3.873 12.796h11.245l-6.455-12.796z" fill="#eeefee"/><path d="m80.869 41.9v4.44a5.623 5.623 0 1 0 11.245 0v-4.44z" fill="#dbd8dd"/><path d="m85.659 29.106 6.455 12.796h11.246l-9.037-12.796z" fill="#ef5261"/><path d="m92.114 41.9v4.44a5.623 5.623 0 0 0 5.623 5.623 5.622 5.622 0 0 0 5.623-5.623v-4.44z" fill="#da364c"/><path d="m64.12 62.957h30.242v22.416h-30.242z" fill="#69b0ee"/><path d="m63.016 85.373v-22.416a1.1 1.1 0 0 1 1.1-1.1h30.246a1.1 1.1 0 0 1 1.1 1.1v22.416a1.1 1.1 0 0 1 -1.1 1.1h-30.243a1.1 1.1 0 0 1 -1.103-1.1zm30.646-21.759h-28.844v21.1h28.844z" fill="#f6b863"/><path d="m33.39 62.45h23.063v33.028h-23.063z" fill="#f6b863"/><path d="m56.453 96.331h-23.063a.854.854 0 0 1 -.854-.854v-33.027a.854.854 0 0 1 .854-.854h23.063a.854.854 0 0 1 .854.854v33.027a.854.854 0 0 1 -.854.854zm-22.209-1.708h21.356v-31.323h-21.356z" fill="#eaa14e"/><rect fill="#828a9e" height="4.584" rx="1" width="82" x="23" y="94.31"/><g fill="#eeefee" opacity=".5"><path d="m73.55 84.716h-1.652l8.542-21.102h1.651z"/><path d="m81.297 84.716h-5.404l8.541-21.102h5.405z"/></g><circle cx="52.035" cy="78.963" fill="#575b6d" r="1.424"/></g></svg>