<svg height="511pt" viewBox="-85 0 511 511.9753" width="511pt" xmlns="http://www.w3.org/2000/svg"><path d="m239.421875 110.933594v328.960937c0 2.449219-1.058594 4.785157-2.902344 6.398438l-59.734375 55.039062c-3.226562 2.816407-8.035156 2.816407-11.261718 0l-7.167969-6.570312-52.566407-48.46875c-1.84375-1.613281-2.902343-3.949219-2.902343-6.398438v-328.960937zm0 0" fill="#7facfa"/><path d="m213.820312 110.933594v328.960937c0 2.449219-1.054687 4.785157-2.902343 6.398438l-52.5625 48.46875-52.566407-48.46875c-1.84375-1.613281-2.902343-3.949219-2.902343-6.398438v-328.960937zm0 0" fill="#e8edfc"/><path d="m333.289062 17.066406v30.121094c.019532 2.5625-1.148437 4.988281-3.160156 6.574219l-88.320312 72.277343c-1.535156 1.265626-3.464844 1.960938-5.460938 1.960938h-130.386718c-1.996094 0-3.925782-.695312-5.460938-1.960938l-8.023438-6.574218-80.296874-65.703125c-2.011719-1.585938-3.179688-4.011719-3.160157-6.574219v-30.121094c.015625-4.707031 3.828125-8.519531 8.535157-8.53125h93.867187c4.707031.011719 8.519531 3.824219 8.53125 8.53125v17.066406c.015625 4.707032 3.828125 8.519532 8.535156 8.535157h85.332031c4.707032-.015625 8.519532-3.828125 8.535157-8.535157v-17.066406c.011719-4.707031 3.824219-8.519531 8.53125-8.53125h93.867187c4.707032.011719 8.519532 3.824219 8.535156 8.53125zm0 0" fill="#cad9fc"/><path d="m307.6875 8.535156v30.121094c.019531 2.558594-1.144531 4.984375-3.15625 6.570312l-88.320312 72.277344c-1.539063 1.269532-3.46875 1.964844-5.460938 1.960938h-118.273438l-80.296874-65.703125c-2.011719-1.585938-3.179688-4.011719-3.160157-6.574219v-30.121094c.015625-4.707031 3.828125-8.519531 8.535157-8.53125h93.867187v17.066406c.011719 4.707032 3.824219 8.519532 8.53125 8.53125.015625 4.707032 3.828125 8.519532 8.535156 8.535157h85.332031c4.707032-.015625 8.519532-3.828125 8.535157-8.535157v-17.066406c.011719-4.707031 3.824219-8.519531 8.53125-8.53125zm0 0" fill="#e8edfc"/><path d="m43.15625 8.535156h-25.601562c-4.707032.011719-8.519532 3.824219-8.535157 8.53125v30.121094c-.019531 2.5625 1.148438 4.988281 3.160157 6.574219l80.296874 65.703125 8.023438 6.574218c.714844.578126 1.523438 1.039063 2.386719 1.355469v312.5c0 2.449219 1.058593 4.785157 2.902343 6.398438l52.566407 48.46875 7.167969 6.570312c3.226562 2.816407 8.035156 2.816407 11.261718 0l7.152344-6.585937-52.546875-48.453125c-1.847656-1.613281-2.902344-3.949219-2.902344-6.398438v-312.5c-.867187-.316406-1.671875-.777343-2.390625-1.355469l-8.019531-6.574218-80.300781-65.703125c-2.011719-1.585938-3.175782-4.011719-3.15625-6.574219v-30.121094c.011718-4.707031 3.824218-8.519531 8.535156-8.53125zm0 0" fill="#fff"/><path d="m236.375 136.535156h-130.441406c-3.929688-.007812-7.742188-1.363281-10.792969-3.84375l-88.394531-72.332031c-3.96875-3.230469-6.269532-8.082031-6.257813-13.199219v-30.09375c.011719-9.421875 7.644531-17.0546872 17.066407-17.066406h93.867187c9.421875.0117188 17.054687 7.644531 17.066406 17.066406v17.066406h85.332031v-17.066406c.011719-9.421875 7.644532-17.0546872 17.066407-17.066406h93.867187c9.421875.0117188 17.054688 7.644531 17.066406 17.066406v30.09375c.011719 5.121094-2.289062 9.972656-6.261718 13.207032l-88.371094 72.316406c-3.058594 2.484375-6.875 3.84375-10.8125 3.851562zm-218.820312-119.46875v30.09375l88.378906 72.304688h130.441406l88.378906-72.304688v-30.101562l-93.867187.007812v17.066406c-.011719 9.421876-7.644531 17.054688-17.066407 17.066407h-85.332031c-9.421875-.011719-17.054687-7.644531-17.066406-17.066407v-17.066406zm0 0" fill="#428dff"/><path d="m111.421875 128v311.859375h-17.066406v-311.859375zm0 0" fill="#fff"/><g fill="#428dff"><path d="m102.886719 170.667969c4.707031-.015625 8.519531-3.828125 8.535156-8.535157v-34.132812h-17.066406v34.132812c.011719 4.707032 3.824219 8.519532 8.53125 8.535157zm0 0"/><path d="m94.355469 439.859375h17.066406v-209.460937c0-4.710938-3.820313-8.53125-8.535156-8.53125-4.710938 0-8.53125 3.820312-8.53125 8.53125zm0 0"/><path d="m111.421875 196.265625c-.035156-2.257813-.917969-4.421875-2.476563-6.058594l-1.277343-1.023437c-.476563-.324219-.992188-.582032-1.539063-.769532-.480468-.246093-1-.417968-1.535156-.511718-.5625-.09375-1.132812-.152344-1.707031-.167969-2.257813.03125-4.421875.914063-6.058594 2.472656-2.070313 1.996094-2.980469 4.910157-2.410156 7.726563.574219 2.820312 2.542969 5.152344 5.226562 6.183594 1.027344.4375 2.128907.667968 3.242188.683593 2.269531.023438 4.453125-.871093 6.058593-2.476562 1.605469-1.601563 2.5-3.789063 2.476563-6.058594zm0 0"/><path d="m171.097656 511.976562c-4.113281.007813-8.085937-1.476562-11.179687-4.183593l-59.90625-55.230469c-3.613281-3.230469-5.675781-7.855469-5.65625-12.703125 0-4.714844 3.820312-8.535156 8.53125-8.535156 4.714843 0 8.535156 3.820312 8.535156 8.535156l59.894531 55.234375 59.410156-55.085938.160157-303.472656h-128c-4.710938 0-8.53125-3.824218-8.53125-8.535156s3.820312-8.535156 8.53125-8.535156h136.535156c4.710937 0 8.53125 3.824218 8.53125 8.535156v311.859375c0 4.921875-2.125 9.605469-5.828125 12.847656l-59.5625 54.933594c-3.167969 2.789063-7.246094 4.328125-11.464844 4.335937zm0 0"/><path d="m94.359375 327.816406c-3.527344.003906-6.691406-2.160156-7.964844-5.449218-1.273437-3.285157-.394531-7.019532 2.210938-9.390626l153.597656-140.085937c3.484375-3.175781 8.882813-2.925781 12.058594.558594s2.925781 8.882812-.558594 12.058593l-153.597656 140.085938c-1.570313 1.433594-3.621094 2.226562-5.746094 2.222656zm0 0"/><path d="m94.359375 379.015625c-3.527344.003906-6.691406-2.160156-7.964844-5.449219-1.273437-3.285156-.394531-7.015625 2.210938-9.390625l153.597656-140.085937c3.484375-3.175782 8.882813-2.921875 12.058594.558594 3.175781 3.484374 2.925781 8.882812-.558594 12.058593l-153.597656 140.085938c-1.570313 1.433593-3.621094 2.226562-5.746094 2.222656zm0 0"/><path d="m94.359375 430.214844c-3.527344.003906-6.691406-2.160156-7.964844-5.445313-1.273437-3.289062-.394531-7.019531 2.210938-9.394531l153.597656-140.082031c2.253906-2.054688 5.433594-2.75 8.339844-1.828125 2.90625.925781 5.097656 3.332031 5.75 6.308594.652343 2.980468-.335938 6.082031-2.589844 8.136718l-153.597656 140.082032c-1.570313 1.433593-3.621094 2.226562-5.746094 2.222656zm0 0"/><path d="m107.609375 469.332031c-3.527344.003907-6.691406-2.160156-7.964844-5.449219-1.273437-3.285156-.398437-7.019531 2.210938-9.390624l140.347656-128c2.253906-2.054688 5.433594-2.75 8.339844-1.824219 2.90625.921875 5.097656 3.328125 5.75 6.308593.652343 2.976563-.335938 6.078126-2.589844 8.132813l-140.347656 128c-1.570313 1.433594-3.621094 2.226563-5.746094 2.222656zm0 0"/><path d="m135.679688 494.933594c-3.527344.003906-6.691407-2.160156-7.964844-5.449219-1.273438-3.285156-.394532-7.019531 2.210937-9.394531l112.277344-102.398438c2.253906-2.054687 5.433594-2.75 8.339844-1.824218 2.90625.925781 5.097656 3.328124 5.75 6.308593.652343 2.976563-.335938 6.078125-2.589844 8.132813l-112.277344 102.398437c-1.570312 1.433594-3.621093 2.230469-5.746093 2.226563zm0 0"/></g></svg>